<svg fill="#647c90" xmlns="http://www.w3.org/2000/svg"  viewBox="0 0 64 64" width="64px" height="64px"><path d="M54 48H38c-.404 0-.77-.244-.924-.617-.155-.374-.069-.804.217-1.09L41 42.586V27.192l-8.071 20.179C32.776 47.751 32.409 48 32 48h-5c-.422 0-.798-.265-.94-.661L19 27.73v12.967l3.832 5.748c.205.307.224.701.05 1.026S22.369 48 22 48H10c-.369 0-.708-.203-.882-.528s-.155-.72.05-1.026L13 40.697V17.414l-4-4c-.574-.574-.744-1.429-.434-2.179S9.603 10 10.414 10H22c.39 0 .744.227.908.581l9.556 20.705 8.613-20.671C41.232 10.243 41.597 10 42 10h11.238c.853 0 1.59.518 1.88 1.319s.055 1.672-.601 2.217L51 16.468v26.118l3.707 3.707c.286.286.372.716.217 1.09C54.77 47.756 54.404 48 54 48zM40.414 46h11.172l-2.293-2.293C49.105 43.52 49 43.265 49 43V16c0-.297.132-.578.359-.768L53.237 12h-10.57l-9.233 22.159c-.152.366-.507.607-.904.615-.419.004-.76-.221-.927-.581L21.36 12H10.414l4.293 4.293C14.895 16.48 15 16.735 15 17v24c0 .197-.059.391-.168.555L11.868 46h8.264l-2.964-4.445C17.059 41.391 17 41.197 17 41V22c0-.486.35-.901.828-.985.472-.081.947.188 1.112.646L27.703 46h3.62l9.748-24.372c.179-.446.652-.699 1.118-.61C42.66 21.109 43 21.521 43 22v21c0 .265-.105.52-.293.707L40.414 46zM9.925 55c-.553 0-1-.448-1-1v-2c0-.552.447-1 1-1s1 .448 1 1v2C10.925 54.552 10.478 55 9.925 55zM14.83 55c-.553 0-1-.448-1-1v-2c0-.552.447-1 1-1s1 .448 1 1v2C15.83 54.552 15.383 55 14.83 55zM19.736 55c-.553 0-1-.448-1-1v-2c0-.552.447-1 1-1s1 .448 1 1v2C20.736 54.552 20.289 55 19.736 55zM24.642 55c-.553 0-1-.448-1-1v-2c0-.552.447-1 1-1s1 .448 1 1v2C25.642 54.552 25.194 55 24.642 55zM29.547 55c-.553 0-1-.448-1-1v-2c0-.552.447-1 1-1s1 .448 1 1v2C30.547 54.552 30.1 55 29.547 55zM34.453 55c-.553 0-1-.448-1-1v-2c0-.552.447-1 1-1s1 .448 1 1v2C35.453 54.552 35.006 55 34.453 55zM39.358 55c-.553 0-1-.448-1-1v-2c0-.552.447-1 1-1s1 .448 1 1v2C40.358 54.552 39.911 55 39.358 55zM44.264 55c-.553 0-1-.448-1-1v-2c0-.552.447-1 1-1s1 .448 1 1v2C45.264 54.552 44.816 55 44.264 55zM49.17 55c-.553 0-1-.448-1-1v-2c0-.552.447-1 1-1s1 .448 1 1v2C50.17 54.552 49.723 55 49.17 55zM54.075 55c-.553 0-1-.448-1-1v-2c0-.552.447-1 1-1s1 .448 1 1v2C55.075 54.552 54.628 55 54.075 55z"/></svg>